<svg width="24" height="24" xmlns="http://www.w3.org/2000/svg" fill="#000000">

 <g>
  <title>Layer 1</title>
  <path id="svg_1" fill="none" d="m0,0l24,0l0,24l-24,0l0,-24z"/>
  <path fill="#1a1a33" id="svg_2" d="m15.5,14l-0.79,0l-0.28,-0.27c1.2,-1.4 1.82,-3.31 1.48,-5.34c-0.47,-2.78 -2.79,-5 -5.59,-5.34c-4.23,-0.52 -7.79,3.04 -7.27,7.27c0.34,2.8 2.56,5.12 5.34,5.59c2.03,0.34 3.94,-0.28 5.34,-1.48l0.27,0.28l0,0.79l4.25,4.25c0.41,0.41 1.08,0.41 1.49,0c0.41,-0.41 0.41,-1.08 0,-1.49l-4.24,-4.26zm-6,0c-2.49,0 -4.5,-2.01 -4.5,-4.5s2.01,-4.5 4.5,-4.5s4.5,2.01 4.5,4.5s-2.01,4.5 -4.5,4.5z"/>
 </g>
</svg>