<svg width="24" height="24" xmlns="http://www.w3.org/2000/svg" fill="#000000">

 <g>
  <title>Layer 1</title>
  <path id="svg_1" fill="none" d="m0,0l24,0l0,24l-24,0l0,-24z"/>
  <path fill="#21213b" id="svg_2" d="m15,12c2.21,0 4,-1.79 4,-4s-1.79,-4 -4,-4s-4,1.79 -4,4s1.79,4 4,4zm-9,-2l0,-2c0,-0.55 -0.45,-1 -1,-1s-1,0.45 -1,1l0,2l-2,0c-0.55,0 -1,0.45 -1,1s0.45,1 1,1l2,0l0,2c0,0.55 0.45,1 1,1s1,-0.45 1,-1l0,-2l2,0c0.55,0 1,-0.45 1,-1s-0.45,-1 -1,-1l-2,0zm9,4c-2.67,0 -8,1.34 -8,4l0,1c0,0.55 0.45,1 1,1l14,0c0.55,0 1,-0.45 1,-1l0,-1c0,-2.66 -5.33,-4 -8,-4z"/>
  <path fill="none" d="m13.30719,7.88236c0.13072,0 0.27139,0.05002 0.39216,0c0.17079,-0.07074 0.28134,-0.23077 0.52288,-0.13072c0.34159,0.14149 0.4828,0.45213 0.65359,0.52288c0.24154,0.10005 0.43044,0.09243 0.52288,0c0.09243,-0.09243 0.26144,-0.65359 0.39216,-1.04575c0.13072,-0.39216 0.21732,-0.82484 0,-1.17647c-0.19438,-0.31451 -0.28096,-0.46088 -0.39216,-0.39216c-0.24864,0.15367 -0.19522,0.63772 -0.26144,1.04575c-0.08376,0.51612 0,0.78431 0.26144,1.04575c0.26144,0.26144 0.63056,0.325 0.91503,0.39216c0.38167,0.0901 0.8522,0.05775 1.17647,-0.39216c0.34182,-0.47425 0.26144,-0.91503 0.26144,-1.17647c0,-0.39216 -0.28575,-0.61341 -0.52288,-0.78431c-0.29994,-0.21618 -0.54719,-0.30163 -0.78431,-0.13072c-0.29994,0.21618 -0.32827,0.78823 -0.39216,1.30719c-0.06585,0.53493 -0.01078,0.92244 0.26144,1.30719c0.3775,0.53356 0.73534,1.09982 1.30719,1.56863c0.72897,0.59762 1.40616,1.17476 2.22222,1.30719c0.64515,0.10469 1.31059,-0.15529 1.69934,-0.78431c0.43464,-0.70327 0.39216,-1.30719 0.39216,-1.69935c0,-0.26144 0,-0.13072 0,0.52288c0,0.91503 0,2.22222 -0.13072,3.26797l0,0.65359l0,0.39216" id="svg_3"/>
  <path fill="none" d="m20.49673,9.97386c0.39216,0.39216 0.72531,0.75424 0.91503,1.30719c0.21632,0.63046 0.26144,1.30719 0.26144,1.56863l0,0.13072l0,0.13072" id="svg_4"/>
  <path fill="none" d="m16.70588,6.05229c-0.13072,0 -0.15335,0.11147 -0.26144,0.26144c-0.17091,0.23712 -0.13072,0.65359 -0.39216,0.91503l0,0.26144l0,0.39216" id="svg_5"/>
 </g>
</svg>