<svg width="24" height="24" xmlns="http://www.w3.org/2000/svg" fill="#000000" enable-background="new 0 0 24 24">

 <g>
  <title>Layer 1</title>
  <rect id="svg_1" width="24" height="24" fill="none"/>
  <path fill="#1a1a33" id="svg_2" d="m19.3,16.9c0.58,-1.01 0.95,-2.23 0.51,-3.65c-0.53,-1.72 -2.04,-3.05 -3.84,-3.22c-2.87,-0.28 -5.23,2.07 -4.95,4.95c0.18,1.79 1.5,3.31 3.22,3.84c1.43,0.44 2.64,0.07 3.65,-0.51l2.5,2.5c0.39,0.39 1.01,0.39 1.4,0l0,0c0.39,-0.39 0.39,-1.01 0,-1.4l-2.49,-2.51zm-3.8,0.1c-1.4,0 -2.5,-1.1 -2.5,-2.5s1.1,-2.5 2.5,-2.5s2.5,1.1 2.5,2.5s-1.1,2.5 -2.5,2.5zm-3.5,3l0,2c-5.52,0 -10,-4.48 -10,-10c0,-5.52 4.48,-10 10,-10c4.84,0 8.87,3.44 9.8,8l-2.07,0c-0.64,-2.46 -2.4,-4.47 -4.73,-5.41l0,0.41c0,1.1 -0.9,2 -2,2l-2,0l0,2c0,0.55 -0.45,1 -1,1l-2,0l0,2l2,0l0,3l-1,0l-4.79,-4.79c-0.13,0.58 -0.21,1.17 -0.21,1.79c0,4.41 3.59,8 8,8z"/>
 </g>
</svg>